<?xml version="1.0" standalone="no"?>
<!DOCTYPE svg PUBLIC "-//W3C//DTD SVG 20010904//EN"
 "http://www.w3.org/TR/2001/REC-SVG-20010904/DTD/svg10.dtd">
<svg version="1.0" xmlns="http://www.w3.org/2000/svg"
 width="256.000000pt" height="256.000000pt" viewBox="0 0 256.000000 256.000000"
 preserveAspectRatio="xMidYMid meet">
<metadata>
Created by potrace 1.11, written by Peter Selinger 2001-2013
</metadata>
<g transform="translate(0.000000,256.000000) scale(0.100000,-0.100000)"
fill="#000000" stroke="none">
<path d="M1289 2525 c-3 -12 -5 -37 -13 -138 -6 -69 -11 -103 -32 -203 -12
-62 -61 -189 -101 -265 -64 -121 -124 -198 -292 -371 -80 -82 -169 -181 -197
-218 -63 -83 -126 -212 -150 -305 -23 -91 -26 -250 -7 -340 60 -287 290 -551
562 -645 89 -31 148 -34 143 -8 -2 10 -24 55 -50 100 -157 271 -183 478 -88
692 45 101 161 264 372 521 43 52 128 192 152 248 21 52 26 80 29 172 6 244
-99 527 -258 698 -38 39 -69 68 -70 62z"/>
<path d="M1860 1464 c-6 -14 -10 -30 -10 -35 0 -21 -114 -226 -153 -274 -28
-36 -120 -160 -159 -216 -170 -243 -217 -472 -137 -664 27 -64 94 -157 156
-218 l49 -48 43 41 c23 22 74 56 113 76 118 59 170 97 254 180 154 153 225
329 219 541 -4 159 -44 278 -136 414 -51 76 -201 229 -224 229 -3 0 -10 -12
-15 -26z"/>
</g>
</svg>
